# xmcd CD database file
#
# Track frame offsets:
#	150
#	21725
#	42107
#	64942
#
# Disc length: 1151 seconds
#
# Revision: 0
# Processed by: cddbd v1.5PL3 Copyright (c) Steve Scherf et al.
# Submitted via: CDex 1.51
#
DISCID=34047d04
DTITLE=相川七瀬 - 終わりない夢
DYEAR=2002
DGENRE=JPop
TTITLE0=終わりない夢
TTITLE1=Cryin' in the rain
TTITLE2=DO IT !!
TTITLE3=終わりない夢 (Instrumental)
EXTD=YEAR: 2002
EXTT0=
EXTT1=
EXTT2=
EXTT3=
PLAYORDER=
